<mxfile host="app.diagrams.net" modified="2020-12-29T15:13:23.827Z" agent="5.0 (Windows NT 10.0; Win64; x64) AppleWebKit/537.36 (KHTML, like Gecko) Chrome/87.0.4280.88 Safari/537.36" etag="p5O0kWkJLC63Vq5RfAG3" version="14.1.3" type="github">
  <diagram id="R2lEEEUBdFMjLlhIrx00" name="Page-1">
    <mxGraphModel dx="188" dy="492" grid="1" gridSize="10" guides="1" tooltips="1" connect="1" arrows="1" fold="1" page="1" pageScale="1" pageWidth="850" pageHeight="1100" math="0" shadow="0" extFonts="Permanent Marker^https://fonts.googleapis.com/css?family=Permanent+Marker">
      <root>
        <mxCell id="0" />
        <mxCell id="1" parent="0" />
        <mxCell id="6RM-fJYjR3JN6yT8-CIa-1" value="书籍" style="whiteSpace=wrap;html=1;align=center;" vertex="1" parent="1">
          <mxGeometry x="1010" y="100" width="100" height="40" as="geometry" />
        </mxCell>
        <mxCell id="6RM-fJYjR3JN6yT8-CIa-4" value="购买" style="shape=rhombus;perimeter=rhombusPerimeter;whiteSpace=wrap;html=1;align=center;" vertex="1" parent="1">
          <mxGeometry x="1170" y="90" width="120" height="60" as="geometry" />
        </mxCell>
        <mxCell id="6RM-fJYjR3JN6yT8-CIa-5" value="用户" style="whiteSpace=wrap;html=1;align=center;" vertex="1" parent="1">
          <mxGeometry x="1490" y="100" width="100" height="40" as="geometry" />
        </mxCell>
        <mxCell id="6RM-fJYjR3JN6yT8-CIa-6" value="订单" style="whiteSpace=wrap;html=1;align=center;" vertex="1" parent="1">
          <mxGeometry x="1180" y="270" width="100" height="40" as="geometry" />
        </mxCell>
        <mxCell id="6RM-fJYjR3JN6yT8-CIa-8" value="" style="endArrow=none;html=1;rounded=0;exitX=1;exitY=0.5;exitDx=0;exitDy=0;entryX=0;entryY=0.5;entryDx=0;entryDy=0;" edge="1" parent="1" source="6RM-fJYjR3JN6yT8-CIa-1" target="6RM-fJYjR3JN6yT8-CIa-4">
          <mxGeometry relative="1" as="geometry">
            <mxPoint x="1000" y="210" as="sourcePoint" />
            <mxPoint x="1160" y="210" as="targetPoint" />
          </mxGeometry>
        </mxCell>
        <mxCell id="6RM-fJYjR3JN6yT8-CIa-9" value="" style="endArrow=none;html=1;rounded=0;exitX=1;exitY=0.5;exitDx=0;exitDy=0;entryX=0;entryY=0.5;entryDx=0;entryDy=0;" edge="1" parent="1" source="6RM-fJYjR3JN6yT8-CIa-4" target="6RM-fJYjR3JN6yT8-CIa-5">
          <mxGeometry relative="1" as="geometry">
            <mxPoint x="1040" y="210" as="sourcePoint" />
            <mxPoint x="1200" y="210" as="targetPoint" />
          </mxGeometry>
        </mxCell>
        <mxCell id="6RM-fJYjR3JN6yT8-CIa-13" value="" style="endArrow=none;html=1;rounded=0;entryX=0.5;entryY=0;entryDx=0;entryDy=0;exitX=0.5;exitY=1;exitDx=0;exitDy=0;" edge="1" parent="1" source="6RM-fJYjR3JN6yT8-CIa-4" target="6RM-fJYjR3JN6yT8-CIa-6">
          <mxGeometry relative="1" as="geometry">
            <mxPoint x="1070" y="210" as="sourcePoint" />
            <mxPoint x="1230" y="210" as="targetPoint" />
          </mxGeometry>
        </mxCell>
        <mxCell id="6RM-fJYjR3JN6yT8-CIa-14" value="通知" style="whiteSpace=wrap;html=1;align=center;" vertex="1" parent="1">
          <mxGeometry x="1490" y="270" width="100" height="40" as="geometry" />
        </mxCell>
        <mxCell id="6RM-fJYjR3JN6yT8-CIa-40" style="edgeStyle=orthogonalEdgeStyle;rounded=0;orthogonalLoop=1;jettySize=auto;html=1;entryX=1;entryY=0.5;entryDx=0;entryDy=0;" edge="1" parent="1" source="6RM-fJYjR3JN6yT8-CIa-15" target="6RM-fJYjR3JN6yT8-CIa-6">
          <mxGeometry relative="1" as="geometry" />
        </mxCell>
        <mxCell id="6RM-fJYjR3JN6yT8-CIa-15" value="触发" style="shape=rhombus;perimeter=rhombusPerimeter;whiteSpace=wrap;html=1;align=center;" vertex="1" parent="1">
          <mxGeometry x="1330" y="260" width="120" height="60" as="geometry" />
        </mxCell>
        <mxCell id="6RM-fJYjR3JN6yT8-CIa-16" value="回收申请" style="shape=ext;margin=3;double=1;whiteSpace=wrap;html=1;align=center;" vertex="1" parent="1">
          <mxGeometry x="1180" y="450" width="100" height="40" as="geometry" />
        </mxCell>
        <mxCell id="6RM-fJYjR3JN6yT8-CIa-31" style="edgeStyle=orthogonalEdgeStyle;rounded=0;orthogonalLoop=1;jettySize=auto;html=1;exitX=0.5;exitY=0;exitDx=0;exitDy=0;entryX=0.5;entryY=1;entryDx=0;entryDy=0;" edge="1" parent="1" source="6RM-fJYjR3JN6yT8-CIa-17" target="6RM-fJYjR3JN6yT8-CIa-6">
          <mxGeometry relative="1" as="geometry" />
        </mxCell>
        <mxCell id="6RM-fJYjR3JN6yT8-CIa-17" value="依附" style="shape=rhombus;double=1;perimeter=rhombusPerimeter;whiteSpace=wrap;html=1;align=center;" vertex="1" parent="1">
          <mxGeometry x="1170" y="340" width="120" height="60" as="geometry" />
        </mxCell>
        <mxCell id="6RM-fJYjR3JN6yT8-CIa-20" value="" style="shape=link;html=1;rounded=0;" edge="1" parent="1" target="6RM-fJYjR3JN6yT8-CIa-16">
          <mxGeometry relative="1" as="geometry">
            <mxPoint x="1230" y="400" as="sourcePoint" />
            <mxPoint x="1390" y="400" as="targetPoint" />
          </mxGeometry>
        </mxCell>
        <mxCell id="6RM-fJYjR3JN6yT8-CIa-21" value="0..1" style="resizable=0;html=1;align=right;verticalAlign=bottom;" connectable="0" vertex="1" parent="6RM-fJYjR3JN6yT8-CIa-20">
          <mxGeometry x="1" relative="1" as="geometry">
            <mxPoint x="-10" y="-10" as="offset" />
          </mxGeometry>
        </mxCell>
        <mxCell id="6RM-fJYjR3JN6yT8-CIa-39" value="" style="endArrow=none;html=1;rounded=0;exitX=1;exitY=0.5;exitDx=0;exitDy=0;entryX=0;entryY=0.5;entryDx=0;entryDy=0;" edge="1" parent="1" source="6RM-fJYjR3JN6yT8-CIa-15" target="6RM-fJYjR3JN6yT8-CIa-14">
          <mxGeometry relative="1" as="geometry">
            <mxPoint x="1410" y="330" as="sourcePoint" />
            <mxPoint x="1570" y="330" as="targetPoint" />
          </mxGeometry>
        </mxCell>
        <mxCell id="6RM-fJYjR3JN6yT8-CIa-42" style="edgeStyle=orthogonalEdgeStyle;rounded=0;orthogonalLoop=1;jettySize=auto;html=1;entryX=0.5;entryY=1;entryDx=0;entryDy=0;exitX=0.5;exitY=0;exitDx=0;exitDy=0;" edge="1" parent="1" source="6RM-fJYjR3JN6yT8-CIa-41" target="6RM-fJYjR3JN6yT8-CIa-5">
          <mxGeometry relative="1" as="geometry">
            <mxPoint x="1540" y="190" as="sourcePoint" />
          </mxGeometry>
        </mxCell>
        <mxCell id="6RM-fJYjR3JN6yT8-CIa-41" value="告知" style="shape=rhombus;perimeter=rhombusPerimeter;whiteSpace=wrap;html=1;align=center;" vertex="1" parent="1">
          <mxGeometry x="1480" y="180" width="120" height="60" as="geometry" />
        </mxCell>
        <mxCell id="6RM-fJYjR3JN6yT8-CIa-43" value="" style="endArrow=none;html=1;rounded=0;entryX=0.5;entryY=0;entryDx=0;entryDy=0;exitX=0.5;exitY=1;exitDx=0;exitDy=0;" edge="1" parent="1" source="6RM-fJYjR3JN6yT8-CIa-41" target="6RM-fJYjR3JN6yT8-CIa-14">
          <mxGeometry relative="1" as="geometry">
            <mxPoint x="1310" y="250" as="sourcePoint" />
            <mxPoint x="1470" y="250" as="targetPoint" />
          </mxGeometry>
        </mxCell>
      </root>
    </mxGraphModel>
  </diagram>
</mxfile>
